<mxfile host="app.diagrams.net" modified="2021-11-20T13:58:25.744Z" agent="5.0 (Windows NT 10.0; Win64; x64) AppleWebKit/537.36 (KHTML, like Gecko) Chrome/96.0.4664.45 Safari/537.36" etag="lx7aJ_HxQTvw36pQYs1F" version="15.7.0" type="github">
  <diagram id="eibKm1Qo0GK7cK8QXqjg" name="第 1 页">
    <mxGraphModel dx="2249" dy="772" grid="1" gridSize="10" guides="1" tooltips="1" connect="1" arrows="1" fold="1" page="1" pageScale="1" pageWidth="827" pageHeight="1169" math="0" shadow="0">
      <root>
        <mxCell id="0" />
        <mxCell id="1" parent="0" />
        <mxCell id="2lD_30OumsJI-XmR9Keu-11" style="rounded=0;orthogonalLoop=1;jettySize=auto;html=1;exitX=0.5;exitY=1;exitDx=0;exitDy=0;strokeWidth=2;entryX=0.5;entryY=0;entryDx=0;entryDy=0;" edge="1" parent="1" source="2lD_30OumsJI-XmR9Keu-1" target="2lD_30OumsJI-XmR9Keu-7">
          <mxGeometry relative="1" as="geometry" />
        </mxCell>
        <mxCell id="2lD_30OumsJI-XmR9Keu-12" style="edgeStyle=none;rounded=0;orthogonalLoop=1;jettySize=auto;html=1;exitX=0.5;exitY=1;exitDx=0;exitDy=0;entryX=0.5;entryY=0;entryDx=0;entryDy=0;strokeWidth=2;" edge="1" parent="1" source="2lD_30OumsJI-XmR9Keu-1" target="2lD_30OumsJI-XmR9Keu-2">
          <mxGeometry relative="1" as="geometry" />
        </mxCell>
        <mxCell id="2lD_30OumsJI-XmR9Keu-1" value="H" style="ellipse;whiteSpace=wrap;html=1;aspect=fixed;strokeWidth=2;" vertex="1" parent="1">
          <mxGeometry x="-410" y="100" width="80" height="80" as="geometry" />
        </mxCell>
        <mxCell id="2lD_30OumsJI-XmR9Keu-24" style="edgeStyle=none;rounded=0;orthogonalLoop=1;jettySize=auto;html=1;exitX=0.5;exitY=1;exitDx=0;exitDy=0;entryX=0.5;entryY=0;entryDx=0;entryDy=0;strokeWidth=2;" edge="1" parent="1" source="2lD_30OumsJI-XmR9Keu-2" target="2lD_30OumsJI-XmR9Keu-10">
          <mxGeometry relative="1" as="geometry" />
        </mxCell>
        <mxCell id="2lD_30OumsJI-XmR9Keu-25" style="edgeStyle=none;rounded=0;orthogonalLoop=1;jettySize=auto;html=1;exitX=0.5;exitY=1;exitDx=0;exitDy=0;entryX=0.5;entryY=0;entryDx=0;entryDy=0;strokeWidth=2;" edge="1" parent="1" source="2lD_30OumsJI-XmR9Keu-2" target="2lD_30OumsJI-XmR9Keu-19">
          <mxGeometry relative="1" as="geometry" />
        </mxCell>
        <mxCell id="2lD_30OumsJI-XmR9Keu-2" value="M" style="ellipse;whiteSpace=wrap;html=1;aspect=fixed;strokeWidth=2;" vertex="1" parent="1">
          <mxGeometry x="-230" y="240" width="80" height="80" as="geometry" />
        </mxCell>
        <mxCell id="2lD_30OumsJI-XmR9Keu-18" style="edgeStyle=none;rounded=0;orthogonalLoop=1;jettySize=auto;html=1;exitX=0.5;exitY=1;exitDx=0;exitDy=0;entryX=0.5;entryY=0;entryDx=0;entryDy=0;strokeWidth=2;" edge="1" parent="1" source="2lD_30OumsJI-XmR9Keu-3" target="2lD_30OumsJI-XmR9Keu-6">
          <mxGeometry relative="1" as="geometry" />
        </mxCell>
        <mxCell id="2lD_30OumsJI-XmR9Keu-3" value="A" style="ellipse;whiteSpace=wrap;html=1;aspect=fixed;strokeWidth=2;" vertex="1" parent="1">
          <mxGeometry x="-740" y="460" width="80" height="80" as="geometry" />
        </mxCell>
        <mxCell id="2lD_30OumsJI-XmR9Keu-4" value="D" style="ellipse;whiteSpace=wrap;html=1;aspect=fixed;strokeWidth=2;" vertex="1" parent="1">
          <mxGeometry x="-620" y="460" width="80" height="80" as="geometry" />
        </mxCell>
        <mxCell id="2lD_30OumsJI-XmR9Keu-15" style="edgeStyle=none;rounded=0;orthogonalLoop=1;jettySize=auto;html=1;exitX=0.5;exitY=1;exitDx=0;exitDy=0;entryX=0.5;entryY=0;entryDx=0;entryDy=0;strokeWidth=2;" edge="1" parent="1" source="2lD_30OumsJI-XmR9Keu-5" target="2lD_30OumsJI-XmR9Keu-4">
          <mxGeometry relative="1" as="geometry" />
        </mxCell>
        <mxCell id="2lD_30OumsJI-XmR9Keu-17" style="edgeStyle=none;rounded=0;orthogonalLoop=1;jettySize=auto;html=1;exitX=0.5;exitY=1;exitDx=0;exitDy=0;entryX=0.5;entryY=0;entryDx=0;entryDy=0;strokeWidth=2;" edge="1" parent="1" source="2lD_30OumsJI-XmR9Keu-5" target="2lD_30OumsJI-XmR9Keu-3">
          <mxGeometry relative="1" as="geometry" />
        </mxCell>
        <mxCell id="2lD_30OumsJI-XmR9Keu-5" value="C" style="ellipse;whiteSpace=wrap;html=1;aspect=fixed;strokeWidth=2;" vertex="1" parent="1">
          <mxGeometry x="-680" y="340" width="80" height="80" as="geometry" />
        </mxCell>
        <mxCell id="2lD_30OumsJI-XmR9Keu-6" value="B" style="ellipse;whiteSpace=wrap;html=1;aspect=fixed;strokeWidth=2;fillColor=#B3B3B3;" vertex="1" parent="1">
          <mxGeometry x="-690" y="590" width="80" height="80" as="geometry" />
        </mxCell>
        <mxCell id="2lD_30OumsJI-XmR9Keu-13" style="edgeStyle=none;rounded=0;orthogonalLoop=1;jettySize=auto;html=1;exitX=0.5;exitY=1;exitDx=0;exitDy=0;entryX=0.5;entryY=0;entryDx=0;entryDy=0;strokeWidth=2;" edge="1" parent="1" source="2lD_30OumsJI-XmR9Keu-7" target="2lD_30OumsJI-XmR9Keu-5">
          <mxGeometry relative="1" as="geometry" />
        </mxCell>
        <mxCell id="2lD_30OumsJI-XmR9Keu-14" style="edgeStyle=none;rounded=0;orthogonalLoop=1;jettySize=auto;html=1;exitX=0.5;exitY=1;exitDx=0;exitDy=0;entryX=0.5;entryY=0;entryDx=0;entryDy=0;strokeWidth=2;" edge="1" parent="1" source="2lD_30OumsJI-XmR9Keu-7" target="2lD_30OumsJI-XmR9Keu-9">
          <mxGeometry relative="1" as="geometry" />
        </mxCell>
        <mxCell id="2lD_30OumsJI-XmR9Keu-7" value="E" style="ellipse;whiteSpace=wrap;html=1;aspect=fixed;strokeWidth=2;" vertex="1" parent="1">
          <mxGeometry x="-590" y="220" width="80" height="80" as="geometry" />
        </mxCell>
        <mxCell id="2lD_30OumsJI-XmR9Keu-8" value="F" style="ellipse;whiteSpace=wrap;html=1;aspect=fixed;strokeWidth=2;" vertex="1" parent="1">
          <mxGeometry x="-470" y="460" width="80" height="80" as="geometry" />
        </mxCell>
        <mxCell id="2lD_30OumsJI-XmR9Keu-16" style="edgeStyle=none;rounded=0;orthogonalLoop=1;jettySize=auto;html=1;exitX=0.5;exitY=1;exitDx=0;exitDy=0;entryX=0.5;entryY=0;entryDx=0;entryDy=0;strokeWidth=2;" edge="1" parent="1" source="2lD_30OumsJI-XmR9Keu-9" target="2lD_30OumsJI-XmR9Keu-8">
          <mxGeometry relative="1" as="geometry" />
        </mxCell>
        <mxCell id="2lD_30OumsJI-XmR9Keu-9" value="G" style="ellipse;whiteSpace=wrap;html=1;aspect=fixed;strokeWidth=2;" vertex="1" parent="1">
          <mxGeometry x="-500" y="340" width="80" height="80" as="geometry" />
        </mxCell>
        <mxCell id="2lD_30OumsJI-XmR9Keu-26" style="edgeStyle=none;rounded=0;orthogonalLoop=1;jettySize=auto;html=1;exitX=0.5;exitY=1;exitDx=0;exitDy=0;entryX=0.5;entryY=0;entryDx=0;entryDy=0;strokeWidth=2;" edge="1" parent="1" source="2lD_30OumsJI-XmR9Keu-10" target="2lD_30OumsJI-XmR9Keu-20">
          <mxGeometry relative="1" as="geometry" />
        </mxCell>
        <mxCell id="2lD_30OumsJI-XmR9Keu-10" value="L" style="ellipse;whiteSpace=wrap;html=1;aspect=fixed;strokeWidth=2;" vertex="1" parent="1">
          <mxGeometry x="-306" y="340" width="80" height="80" as="geometry" />
        </mxCell>
        <mxCell id="2lD_30OumsJI-XmR9Keu-27" style="edgeStyle=none;rounded=0;orthogonalLoop=1;jettySize=auto;html=1;exitX=0.5;exitY=1;exitDx=0;exitDy=0;entryX=0.5;entryY=0;entryDx=0;entryDy=0;strokeWidth=2;" edge="1" parent="1" source="2lD_30OumsJI-XmR9Keu-19" target="2lD_30OumsJI-XmR9Keu-21">
          <mxGeometry relative="1" as="geometry" />
        </mxCell>
        <mxCell id="2lD_30OumsJI-XmR9Keu-28" style="edgeStyle=none;rounded=0;orthogonalLoop=1;jettySize=auto;html=1;exitX=0.5;exitY=1;exitDx=0;exitDy=0;entryX=0.5;entryY=0;entryDx=0;entryDy=0;strokeWidth=2;" edge="1" parent="1" source="2lD_30OumsJI-XmR9Keu-19" target="2lD_30OumsJI-XmR9Keu-22">
          <mxGeometry relative="1" as="geometry" />
        </mxCell>
        <mxCell id="2lD_30OumsJI-XmR9Keu-19" value="W" style="ellipse;whiteSpace=wrap;html=1;aspect=fixed;strokeWidth=2;" vertex="1" parent="1">
          <mxGeometry x="-150" y="340" width="80" height="80" as="geometry" />
        </mxCell>
        <mxCell id="2lD_30OumsJI-XmR9Keu-20" value="K" style="ellipse;whiteSpace=wrap;html=1;aspect=fixed;strokeWidth=2;" vertex="1" parent="1">
          <mxGeometry x="-346" y="460" width="80" height="80" as="geometry" />
        </mxCell>
        <mxCell id="2lD_30OumsJI-XmR9Keu-21" value="N" style="ellipse;whiteSpace=wrap;html=1;aspect=fixed;strokeWidth=2;" vertex="1" parent="1">
          <mxGeometry x="-210" y="460" width="80" height="80" as="geometry" />
        </mxCell>
        <mxCell id="2lD_30OumsJI-XmR9Keu-29" style="edgeStyle=none;rounded=0;orthogonalLoop=1;jettySize=auto;html=1;exitX=0.5;exitY=1;exitDx=0;exitDy=0;entryX=0.5;entryY=0;entryDx=0;entryDy=0;strokeWidth=2;" edge="1" parent="1" source="2lD_30OumsJI-XmR9Keu-22" target="2lD_30OumsJI-XmR9Keu-23">
          <mxGeometry relative="1" as="geometry" />
        </mxCell>
        <mxCell id="2lD_30OumsJI-XmR9Keu-22" value="X&lt;span style=&quot;color: rgba(0 , 0 , 0 , 0) ; font-family: monospace ; font-size: 0px ; font-weight: 400&quot;&gt;%3CmxGraphModel%3E%3Croot%3E%3CmxCell%20id%3D%220%22%2F%3E%3CmxCell%20id%3D%221%22%20parent%3D%220%22%2F%3E%3CmxCell%20id%3D%222%22%20value%3D%22K%22%20style%3D%22ellipse%3BwhiteSpace%3Dwrap%3Bhtml%3D1%3Baspect%3Dfixed%3BstrokeWidth%3D2%3B%22%20vertex%3D%221%22%20parent%3D%221%22%3E%3CmxGeometry%20x%3D%22334%22%20y%3D%22470%22%20width%3D%2280%22%20height%3D%2280%22%20as%3D%22geometry%22%2F%3E%3C%2FmxCell%3E%3C%2Froot%3E%3C%2FmxGraphModel%3E&lt;/span&gt;" style="ellipse;whiteSpace=wrap;html=1;aspect=fixed;strokeWidth=2;fontStyle=1" vertex="1" parent="1">
          <mxGeometry x="-80" y="460" width="80" height="80" as="geometry" />
        </mxCell>
        <mxCell id="2lD_30OumsJI-XmR9Keu-23" value="Y" style="ellipse;whiteSpace=wrap;html=1;aspect=fixed;strokeWidth=2;" vertex="1" parent="1">
          <mxGeometry x="-40" y="580" width="80" height="80" as="geometry" />
        </mxCell>
      </root>
    </mxGraphModel>
  </diagram>
</mxfile>
